<?xml version="1.0" encoding="UTF-8"?>
<!DOCTYPE svg PUBLIC "-//W3C//DTD SVG 1.1//EN" "http://www.w3.org/Graphics/SVG/1.1/DTD/svg11.dtd">
<svg xmlns="http://www.w3.org/2000/svg" version="1.1" width="888px" height="410px" style="shape-rendering:geometricPrecision; text-rendering:geometricPrecision; image-rendering:optimizeQuality; fill-rule:evenodd; clip-rule:evenodd" xmlns:xlink="http://www.w3.org/1999/xlink">
<g><path style="opacity:0.979" fill="#126a38" d="M 6.5,-0.5 C 11.1667,-0.5 15.8333,-0.5 20.5,-0.5C 161.111,16.1794 301.945,32.1794 443,47.5C 584.705,32.0331 726.205,16.0331 867.5,-0.5C 872.167,-0.5 876.833,-0.5 881.5,-0.5C 883.833,1.16667 885.833,3.16667 887.5,5.5C 887.5,8.83333 887.5,12.1667 887.5,15.5C 868.036,95.6309 848.869,175.964 830,256.5C 825.445,269.54 816.278,277.04 802.5,279C 772.168,279.5 741.835,279.667 711.5,279.5C 710.584,293.918 702.917,302.085 688.5,304C 524.5,304.667 360.5,304.667 196.5,304C 182.462,301.149 174.795,292.982 173.5,279.5C 143.165,279.667 112.832,279.5 82.5,279C 64.7289,275.555 54.8955,264.722 53,246.5C 35.2904,168.672 17.4571,91.0052 -0.5,13.5C -0.5,11.5 -0.5,9.5 -0.5,7.5C 1.09021,4.23924 3.42355,1.57257 6.5,-0.5 Z"/></g>
<g><path style="opacity:1" fill="#fefdfd" d="M 16.5,16.5 C 16.9169,15.8761 17.5836,15.5427 18.5,15.5C 159.428,32.0846 300.428,48.0846 441.5,63.5C 584.526,47.4786 727.526,31.6453 870.5,16C 852.269,91.3704 834.435,166.87 817,242.5C 815.732,247.637 814.066,252.637 812,257.5C 809.374,260.231 806.207,262.064 802.5,263C 772.168,263.5 741.835,263.667 711.5,263.5C 709.085,252.584 702.418,245.751 691.5,243C 525.5,242.333 359.5,242.333 193.5,243C 183.125,246.204 176.792,253.037 174.5,263.5C 143.498,263.667 112.498,263.5 81.5,263C 78.2409,261.789 75.4075,259.956 73,257.5C 70.9344,252.637 69.2678,247.637 68,242.5C 50.4901,167.098 33.3234,91.7643 16.5,16.5 Z"/></g>
<g><path style="opacity:1" fill="#d02632" d="M 103.5,76.5 C 116.321,73.3966 126.487,77.0633 134,87.5C 135.785,92.8104 135.785,98.1437 134,103.5C 131,113.504 128.334,123.504 126,133.5C 139.355,113.476 156.522,97.6428 177.5,86C 182.644,83.7297 187.978,82.063 193.5,81C 210.5,80.3333 227.5,80.3333 244.5,81C 239.349,88.3027 239.349,95.6361 244.5,103C 227.167,103.333 209.833,103.667 192.5,104C 170.92,106.456 152.92,115.79 138.5,132C 141.519,130.521 144.852,129.521 148.5,129C 157.569,127.063 163.402,130.563 166,139.5C 164.713,155.653 161.046,171.32 155,186.5C 153.711,198.96 157.378,200.627 166,191.5C 174.173,175.148 180.673,158.148 185.5,140.5C 183.611,138.087 181.444,135.754 179,133.5C 175.855,120.645 180.688,115.812 193.5,119C 194.5,119.833 195.5,120.667 196.5,121.5C 197.57,124.867 198.903,128.034 200.5,131C 208.827,131.5 217.16,131.666 225.5,131.5C 222.514,143.112 219.68,154.779 217,166.5C 216.149,172.253 216.483,177.92 218,183.5C 220.284,185.984 222.784,186.151 225.5,184C 228.106,182.062 229.939,179.562 231,176.5C 235.253,161.901 239.253,147.235 243,132.5C 243.5,132 244,131.5 244.5,131C 250.416,130.193 256.25,130.359 262,131.5C 258.438,146.869 254.438,162.203 250,177.5C 249.333,180.5 249.333,183.5 250,186.5C 252.419,188.842 254.753,188.509 257,185.5C 256.627,177.887 259.96,172.887 267,170.5C 275.333,155.833 283.667,141.167 292,126.5C 296.066,125.536 300.233,125.203 304.5,125.5C 303.099,129.168 302.432,133.001 302.5,137C 304.432,149.498 306.432,161.998 308.5,174.5C 303.972,187.76 306.139,189.427 315,179.5C 319.954,165.017 324.287,150.35 328,135.5C 328.273,133.671 329.107,132.171 330.5,131C 335.833,130.333 341.167,130.333 346.5,131C 347.343,132.787 347.51,134.62 347,136.5C 356.042,127.178 365.042,127.178 374,136.5C 378.16,146.648 378.493,156.981 375,167.5C 372.815,174.397 370.481,181.064 368,187.5C 375.728,184.104 381.062,178.438 384,170.5C 386.876,156.953 390.709,143.787 395.5,131C 401.167,130.333 406.833,130.333 412.5,131C 412.957,131.414 413.291,131.914 413.5,132.5C 409.234,147.466 405.067,162.466 401,177.5C 400.333,180.167 400.333,182.833 401,185.5C 402.99,188.722 405.49,189.222 408.5,187C 411.106,185.062 412.939,182.562 414,179.5C 418.825,163.863 423.492,148.196 428,132.5C 428.5,132 429,131.5 429.5,131C 435.157,130.501 440.824,130.334 446.5,130.5C 441.194,155.086 434.861,179.42 427.5,203.5C 431.374,205.292 435.374,206.792 439.5,208C 440.792,210.925 439.958,213.092 437,214.5C 432.877,213.261 428.71,212.261 424.5,211.5C 418.156,230.898 405.156,237.731 385.5,232C 379.35,227.538 377.85,221.704 381,214.5C 388.273,206.281 397.44,201.948 408.5,201.5C 409.929,199.669 410.429,197.669 410,195.5C 402.126,201.408 394.126,201.742 386,196.5C 384.217,193.657 382.717,190.657 381.5,187.5C 366.442,200.047 349.776,203.047 331.5,196.5C 328.383,204.965 325.883,213.631 324,222.5C 317.924,223.476 311.758,223.81 305.5,223.5C 307.366,212.715 309.532,202.048 312,191.5C 298.781,199.346 284.614,201.846 269.5,199C 266.217,197.439 263.383,195.273 261,192.5C 252.42,200.57 242.92,202.07 232.5,197C 231.333,195.167 230.167,193.333 229,191.5C 221.388,200.665 212.221,202.832 201.5,198C 197.006,192.909 195.006,186.909 195.5,180C 197.336,167.32 200.003,154.82 203.5,142.5C 200.473,141.491 197.473,141.491 194.5,142.5C 188.556,160.384 182.056,178.051 175,195.5C 166.073,212.586 152.907,217.086 135.5,209C 128.977,203.996 126.81,197.496 129,189.5C 132.566,176.499 136.066,163.499 139.5,150.5C 139.029,147.698 137.362,146.364 134.5,146.5C 130.707,146.98 127.54,148.647 125,151.5C 121.748,156.334 118.748,161.334 116,166.5C 111.663,180.844 107.329,195.178 103,209.5C 95.2462,210.647 87.4128,210.814 79.5,210C 78.4464,208.612 78.2797,207.112 79,205.5C 89.2111,168.537 99.2111,131.537 109,94.5C 109.79,91.366 109.457,88.366 108,85.5C 105.193,83.4074 102.36,81.4074 99.5,79.5C 100.624,78.1408 101.958,77.1408 103.5,76.5 Z"/></g>
<g><path style="opacity:1" fill="#d02531" d="M 459.5,76.5 C 460.833,76.5 462.167,76.5 463.5,76.5C 464.879,89.9381 459.212,98.7714 446.5,103C 389.5,103.667 332.5,103.667 275.5,103C 280.826,95.7053 280.826,88.3719 275.5,81C 334.833,80.6667 394.167,80.3333 453.5,80C 456.264,79.9942 458.264,78.8275 459.5,76.5 Z"/></g>
<g><path style="opacity:1" fill="#d02632" d="M 629.5,172.5 C 627.833,172.5 626.167,172.5 624.5,172.5C 624.216,174.415 624.549,176.081 625.5,177.5C 626.577,187.217 631.911,190.717 641.5,188C 650.641,184.192 657.141,177.692 661,168.5C 664.514,156.11 668.18,143.776 672,131.5C 677.416,130.361 682.916,130.194 688.5,131C 689.271,133.44 689.438,135.94 689,138.5C 695.681,131.248 703.847,128.748 713.5,131C 716.754,133.342 718.588,136.509 719,140.5C 724.723,134.087 731.89,130.42 740.5,129.5C 748.669,130.001 752.669,134.335 752.5,142.5C 750.298,154.844 747.965,167.177 745.5,179.5C 745.667,181.5 745.833,183.5 746,185.5C 746.956,186.894 748.289,187.561 750,187.5C 753.072,186.964 755.739,185.63 758,183.5C 755.774,164.866 761.274,149.032 774.5,136C 782.053,130.353 790.386,128.686 799.5,131C 808.243,136.001 811.41,143.501 809,153.5C 803.807,165.518 794.64,171.852 781.5,172.5C 779.833,172.5 778.167,172.5 776.5,172.5C 776.205,174.735 776.539,176.735 777.5,178.5C 780.5,188.328 786.833,191.162 796.5,187C 800.043,185.392 803.043,183.058 805.5,180C 810.083,179.066 811.583,180.9 810,185.5C 799.042,199.708 785.209,203.541 768.5,197C 765.96,194.795 763.793,192.295 762,189.5C 753.421,199.696 742.921,202.529 730.5,198C 726.133,193.954 724.466,188.954 725.5,183C 726.733,170.729 729.4,158.729 733.5,147C 733.355,146.228 733.022,145.561 732.5,145C 725.201,145.593 720.034,149.426 717,156.5C 713.333,170.5 709.667,184.5 706,198.5C 699.924,199.476 693.758,199.81 687.5,199.5C 690.888,181.946 695.222,164.613 700.5,147.5C 700.392,146.558 700.059,145.725 699.5,145C 697.833,144.333 696.167,144.333 694.5,145C 691.37,147.128 688.537,149.628 686,152.5C 680.881,167.64 676.381,182.973 672.5,198.5C 666.528,199.664 660.528,199.83 654.5,199C 653.978,198.439 653.645,197.772 653.5,197C 654.654,194.563 655.154,192.063 655,189.5C 646.677,198.128 636.51,201.628 624.5,200C 617.521,198.092 612.355,193.926 609,187.5C 600.945,198.63 590.445,202.13 577.5,198C 571.542,189.639 570.042,180.472 573,170.5C 575.116,161.2 577.616,152.034 580.5,143C 577.146,142.545 573.813,142.045 570.5,141.5C 565.909,157.773 560.409,173.773 554,189.5C 550.691,197.8 545.524,204.633 538.5,210C 529.79,214.542 521.123,214.542 512.5,210C 507.763,206.137 505.096,201.137 504.5,195C 508.088,180.149 511.754,165.316 515.5,150.5C 515.752,147.253 514.252,145.92 511,146.5C 506.337,147.145 502.67,149.478 500,153.5C 496.745,159.008 493.745,164.675 491,170.5C 487.333,183.5 483.667,196.5 480,209.5C 471.919,210.482 463.752,210.816 455.5,210.5C 464.713,171.651 474.88,132.984 486,94.5C 486.755,91.6967 486.422,89.0301 485,86.5C 482.205,83.5334 479.038,81.2 475.5,79.5C 476.714,77.9309 478.381,77.0976 480.5,77C 504.551,73.0498 514.384,82.8832 510,106.5C 506.899,115.793 504.232,125.126 502,134.5C 515.304,114.862 532.137,99.0283 552.5,87C 558.332,84.4135 564.332,82.4135 570.5,81C 653.833,80.6667 737.167,80.3333 820.5,80C 822.618,79.7398 824.284,78.7398 825.5,77C 828.906,75.7601 830.573,76.9268 830.5,80.5C 829.605,92.1411 823.605,99.6411 812.5,103C 730.5,103.333 648.5,103.667 566.5,104C 546.677,107.243 530.011,116.243 516.5,131C 538.345,124.843 546.511,133.009 541,155.5C 538.071,166.289 534.737,176.955 531,187.5C 530.223,190.429 530.39,193.263 531.5,196C 533.5,196.667 535.5,196.667 537.5,196C 539,194.5 540.5,193 542,191.5C 550.401,174.964 557.235,157.797 562.5,140C 555.777,136.386 552.944,130.886 554,123.5C 559.708,116.35 566.041,115.683 573,121.5C 573.71,124.922 574.876,128.089 576.5,131C 585.078,131.182 593.578,131.682 602,132.5C 598.399,144.239 595.399,156.239 593,168.5C 592.333,172.833 592.333,177.167 593,181.5C 595.129,185.825 598.296,186.659 602.5,184C 603.667,182.833 604.833,181.667 606,180.5C 604.182,162.316 610.015,147.15 623.5,135C 634.839,126.926 645.339,127.759 655,137.5C 659.687,151.105 655.854,161.605 643.5,169C 638.977,170.797 634.31,171.964 629.5,172.5 Z"/></g>
<g><path style="opacity:1" fill="#d12c34" d="M 256.5,80.5 C 263.272,79.6362 268.105,82.3029 271,88.5C 271.833,99 267,103.833 256.5,103C 248.275,98.8074 246.442,92.6407 251,84.5C 252.812,83.0229 254.645,81.6896 256.5,80.5 Z"/></g>
<g><path style="opacity:1" fill="#fdf7f5" d="M 789.5,138.5 C 792.238,137.965 794.072,138.965 795,141.5C 796.074,154.689 790.241,163.022 777.5,166.5C 777.738,155.376 781.738,146.043 789.5,138.5 Z"/></g>
<g><path style="opacity:1" fill="#fef9f8" d="M 637.5,138.5 C 639.144,138.286 640.644,138.62 642,139.5C 644.586,153.343 639.253,162.343 626,166.5C 625.748,155.355 629.581,146.022 637.5,138.5 Z"/></g>
<g><path style="opacity:1" fill="#fefaf8" d="M 350.5,142.5 C 353.044,142.104 355.211,142.771 357,144.5C 358.263,157.52 355.929,169.853 350,181.5C 347.881,185.455 344.715,188.122 340.5,189.5C 338.234,189.069 336.734,187.736 336,185.5C 336.664,171.846 339.997,158.846 346,146.5C 347.397,144.93 348.897,143.596 350.5,142.5 Z"/></g>
<g><path style="opacity:1" fill="#fef8f6" d="M 285.5,151.5 C 286.586,151.62 287.253,152.287 287.5,153.5C 289.421,163.419 289.921,173.419 289,183.5C 287.215,188.288 283.882,191.288 279,192.5C 276.837,192.505 275.337,191.505 274.5,189.5C 278.466,183.946 278.466,178.446 274.5,173C 278.313,165.874 281.979,158.707 285.5,151.5 Z"/></g>
<g><path style="opacity:1" fill="#eeb1a1" d="M 629.5,172.5 C 628.432,173.434 627.099,173.768 625.5,173.5C 625.5,174.833 625.5,176.167 625.5,177.5C 624.549,176.081 624.216,174.415 624.5,172.5C 626.167,172.5 627.833,172.5 629.5,172.5 Z"/></g>
<g><path style="opacity:1" fill="#e1806d" d="M 781.5,172.5 C 780.432,173.434 779.099,173.768 777.5,173.5C 777.5,175.167 777.5,176.833 777.5,178.5C 776.539,176.735 776.205,174.735 776.5,172.5C 778.167,172.5 779.833,172.5 781.5,172.5 Z"/></g>
<g><path style="opacity:1" fill="#fdf6f4" d="M 399.5,210.5 C 401.527,210.338 403.527,210.505 405.5,211C 404.19,216.295 401.19,220.295 396.5,223C 390.567,224.075 388.733,221.908 391,216.5C 393.637,214.109 396.47,212.109 399.5,210.5 Z"/></g>
<g><path style="opacity:0.641" fill="#0d6936" d="M 841.5,249.5 C 851.686,248.559 855.186,252.892 852,262.5C 846.808,267.292 842.142,266.626 838,260.5C 836.882,256.077 838.049,252.41 841.5,249.5 Z M 842.5,261.5 C 838.756,258.873 838.589,255.873 842,252.5C 842.498,255.482 842.665,258.482 842.5,261.5 Z M 849.5,253.5 C 851.9,255.581 852.066,257.914 850,260.5C 849.691,259.234 849.191,258.067 848.5,257C 849.337,255.989 849.67,254.822 849.5,253.5 Z M 844.5,254.5 C 845.289,254.783 845.956,255.283 846.5,256C 845.184,256.528 844.517,256.028 844.5,254.5 Z M 842.5,261.5 C 843.859,260.993 844.859,259.993 845.5,258.5C 846.23,259.934 847.23,261.1 848.5,262C 846.288,262.789 844.288,262.622 842.5,261.5 Z"/></g>
<g><path style="opacity:1" fill="#f5f6f4" d="M 281.5,256.5 C 292.224,255.106 299.391,259.44 303,269.5C 303.668,283.165 297.168,289.999 283.5,290C 269.759,284.779 266.259,275.612 273,262.5C 275.637,260.109 278.47,258.109 281.5,256.5 Z"/></g>
<g><path style="opacity:1" fill="#f5f7f4" d="M 503.5,273.5 C 503.44,272.957 503.107,272.624 502.5,272.5C 501.505,277.792 501.172,283.125 501.5,288.5C 499.393,289.468 497.059,289.802 494.5,289.5C 494.168,278.48 494.501,267.48 495.5,256.5C 502.117,261.614 508.283,267.281 514,273.5C 514.333,268.167 514.667,262.833 515,257.5C 517.333,256.167 519.667,256.167 522,257.5C 522.667,268.167 522.667,278.833 522,289.5C 521.282,290.451 520.449,290.617 519.5,290C 513.936,284.605 508.603,279.105 503.5,273.5 Z"/></g>
<g><path style="opacity:1" fill="#f3f5f2" d="M 654.5,256.5 C 659.408,255.874 663.908,256.874 668,259.5C 668.825,261.701 668.325,263.534 666.5,265C 652.158,263.405 651.824,265.739 665.5,272C 672.312,277.983 671.979,283.649 664.5,289C 658.024,291.707 652.691,290.374 648.5,285C 648.888,283.049 649.888,281.549 651.5,280.5C 654.612,282.184 657.946,282.85 661.5,282.5C 661.657,281.127 661.49,279.793 661,278.5C 655.506,276.596 651.173,273.263 648,268.5C 647.339,262.989 649.506,258.989 654.5,256.5 Z"/></g>
<g><path style="opacity:1" fill="#f3f5f2" d="M 217.5,256.5 C 227.655,254.38 236.155,257.047 243,264.5C 247.805,275.727 244.639,283.894 233.5,289C 227.843,289.499 222.176,289.666 216.5,289.5C 216.19,278.419 216.523,267.419 217.5,256.5 Z"/></g>
<g><path style="opacity:1" fill="#f3f5f2" d="M 329.5,256.5 C 331.833,256.5 334.167,256.5 336.5,256.5C 336.334,263.841 336.5,271.174 337,278.5C 339.922,283.233 343.255,283.566 347,279.5C 347.333,272.167 347.667,264.833 348,257.5C 350.333,256.167 352.667,256.167 355,257.5C 355.667,265.5 355.667,273.5 355,281.5C 350.968,289.037 344.802,291.537 336.5,289C 329.451,284.043 326.785,277.209 328.5,268.5C 328.532,264.419 328.865,260.419 329.5,256.5 Z"/></g>
<g><path style="opacity:1" fill="#f4f6f3" d="M 393.5,256.5 C 397.605,256.234 401.605,256.734 405.5,258C 410.838,261.026 410.671,263.859 405,266.5C 398.696,262.971 393.696,264.305 390,270.5C 389.167,279 393,282.833 401.5,282C 401.957,281.586 402.291,281.086 402.5,280.5C 398.906,279.125 397.572,276.458 398.5,272.5C 402.437,272.207 406.27,272.54 410,273.5C 413.838,284.421 410.171,289.755 399,289.5C 384.193,287.896 378.859,279.896 383,265.5C 385.468,261.199 388.968,258.199 393.5,256.5 Z"/></g>
<g><path style="opacity:1" fill="#f5f7f4" d="M 438.5,256.5 C 440.792,256.244 442.959,256.577 445,257.5C 445.499,261.486 445.666,265.486 445.5,269.5C 449.5,269.5 453.5,269.5 457.5,269.5C 457.334,265.486 457.501,261.486 458,257.5C 460.333,256.167 462.667,256.167 465,257.5C 465.5,268.161 465.667,278.828 465.5,289.5C 462.881,289.768 460.381,289.435 458,288.5C 457.501,284.514 457.334,280.514 457.5,276.5C 453.5,276.5 449.5,276.5 445.5,276.5C 445.666,280.514 445.499,284.514 445,288.5C 442.667,289.833 440.333,289.833 438,288.5C 437.192,277.757 437.358,267.09 438.5,256.5 Z"/></g>
<g><path style="opacity:1" fill="#f2f5f1" d="M 551.5,256.5 C 553.792,256.244 555.959,256.577 558,257.5C 558.333,264.833 558.667,272.167 559,279.5C 562.661,282.406 565.994,282.073 569,278.5C 569.5,271.174 569.666,263.841 569.5,256.5C 572.119,256.232 574.619,256.565 577,257.5C 577.667,264.833 577.667,272.167 577,279.5C 573.05,289.054 566.217,291.887 556.5,288C 554.291,286.127 552.458,283.96 551,281.5C 550.199,273.088 550.366,264.755 551.5,256.5 Z"/></g>
<g><path style="opacity:1" fill="#f7f8f6" d="M 623.5,263.5 C 621.167,263.5 618.833,263.5 616.5,263.5C 616.5,271.833 616.5,280.167 616.5,288.5C 614.167,289.833 611.833,289.833 609.5,288.5C 609.5,280.167 609.5,271.833 609.5,263.5C 607.167,263.5 604.833,263.5 602.5,263.5C 602.5,261.5 602.5,259.5 602.5,257.5C 609.321,256.345 616.321,256.179 623.5,257C 624.811,259.274 624.811,261.44 623.5,263.5 Z"/></g>
<g><path style="opacity:1" fill="#176b3a" d="M 224.5,264.5 C 235.165,263.659 238.998,268.326 236,278.5C 232.795,281.432 228.962,282.765 224.5,282.5C 224.5,276.5 224.5,270.5 224.5,264.5 Z"/></g>
<g><path style="opacity:1" fill="#1a6c3b" d="M 282.5,264.5 C 293.791,264.27 297.291,269.27 293,279.5C 286.838,284.134 281.838,283.134 278,276.5C 277.333,274.167 277.333,271.833 278,269.5C 279.366,267.638 280.866,265.972 282.5,264.5 Z"/></g>
<g><path style="opacity:1" fill="#a1b79f" d="M 602.5,257.5 C 602.5,259.5 602.5,261.5 602.5,263.5C 604.833,263.5 607.167,263.5 609.5,263.5C 609.5,271.833 609.5,280.167 609.5,288.5C 608.508,280.684 608.174,272.684 608.5,264.5C 606.167,264.5 603.833,264.5 601.5,264.5C 601.198,261.941 601.532,259.607 602.5,257.5 Z"/></g>
<g><path style="opacity:0.62" fill="#0d6936" d="M 836.5,268.5 C 838.888,269.219 840.388,270.885 841,273.5C 841.739,271.779 842.573,270.113 843.5,268.5C 845.25,271.565 846.25,274.898 846.5,278.5C 845.5,278.5 844.5,278.5 843.5,278.5C 843.649,277.448 843.483,276.448 843,275.5C 841.447,279.299 840.114,279.299 839,275.5C 838.167,276.5 837.333,277.5 836.5,278.5C 836.024,275.26 836.024,271.927 836.5,268.5 Z"/></g>
<g><path style="opacity:0.68" fill="#0d6936" d="M 847.5,268.5 C 855.486,267.998 857.486,271.165 853.5,278C 851.527,278.495 849.527,278.662 847.5,278.5C 847.5,275.167 847.5,271.833 847.5,268.5 Z M 849.5,270.5 C 854.197,271.874 854.531,273.874 850.5,276.5C 849.534,274.604 849.201,272.604 849.5,270.5 Z"/></g>
<g><path style="opacity:1" fill="#7e9d7e" d="M 623.5,263.5 C 621.735,264.461 619.735,264.795 617.5,264.5C 617.826,272.684 617.492,280.684 616.5,288.5C 616.5,280.167 616.5,271.833 616.5,263.5C 618.833,263.5 621.167,263.5 623.5,263.5 Z"/></g>
<g><path style="opacity:1" fill="#7a9a7a" d="M 503.5,273.5 C 502.833,278.5 502.167,283.5 501.5,288.5C 501.172,283.125 501.505,277.792 502.5,272.5C 503.107,272.624 503.44,272.957 503.5,273.5 Z"/></g>
<g><path style="opacity:0.936" fill="#0d6936" d="M 292.5,409.5 C 290.833,409.5 289.167,409.5 287.5,409.5C 274.682,396.576 261.849,383.576 249,370.5C 248.667,382.833 248.333,395.167 248,407.5C 242.928,408.471 237.762,408.805 232.5,408.5C 231.633,384.838 231.466,361.171 232,337.5C 235.128,336.058 237.962,336.558 240.5,339C 252.029,350.863 263.862,362.363 276,373.5C 276.5,361.505 276.667,349.505 276.5,337.5C 282.093,337.193 287.593,337.527 293,338.5C 293.822,362.239 293.656,385.906 292.5,409.5 Z"/></g>
<g><path style="opacity:0.937" fill="#0d6936" d="M 474.5,336.5 C 476.144,336.286 477.644,336.62 479,337.5C 488.333,357.5 497.667,377.5 507,397.5C 508.639,400.742 509.639,404.076 510,407.5C 504.918,408.637 499.751,408.804 494.5,408C 493.341,406.173 492.008,404.507 490.5,403C 491.214,401.657 490.88,400.324 489.5,399C 480.482,398.168 471.482,398.335 462.5,399.5C 461.211,402.58 459.545,405.414 457.5,408C 452.511,408.499 447.511,408.666 442.5,408.5C 443.344,401.806 445.677,395.639 449.5,390C 457.474,371.892 465.807,354.058 474.5,336.5 Z M 475.5,369.5 C 478.044,373.581 480.378,377.914 482.5,382.5C 478.205,383.661 473.871,383.828 469.5,383C 471.793,378.618 473.793,374.118 475.5,369.5 Z"/></g>
<g><path style="opacity:0.934" fill="#0d6936" d="M 576.5,409.5 C 572.5,409.5 568.5,409.5 564.5,409.5C 557.393,408.277 551.393,404.944 546.5,399.5C 548.626,396.081 550.626,392.581 552.5,389C 553.833,388.333 555.167,388.333 556.5,389C 560.362,391.93 564.695,393.764 569.5,394.5C 574.876,394.301 577.042,391.634 576,386.5C 575.07,384.448 573.57,382.948 571.5,382C 565.675,379.255 560.008,376.255 554.5,373C 543.987,362.8 543.987,352.134 554.5,341C 567.093,334.659 579.426,335.325 591.5,343C 592.804,343.804 593.471,344.971 593.5,346.5C 591.618,350.943 588.785,354.61 585,357.5C 580.452,354.393 575.452,352.393 570,351.5C 566.761,351.4 564.594,352.9 563.5,356C 564.79,358.292 566.457,360.292 568.5,362C 577.045,364.852 584.545,369.352 591,375.5C 598.915,392.251 594.082,403.585 576.5,409.5 Z"/></g>
<g><path style="opacity:0.951" fill="#0d6936" d="M 700.5,409.5 C 698.833,409.5 697.167,409.5 695.5,409.5C 682.869,396.368 670.035,383.368 657,370.5C 656.5,383.162 656.333,395.829 656.5,408.5C 651.167,408.5 645.833,408.5 640.5,408.5C 640.5,384.5 640.5,360.5 640.5,336.5C 642.527,336.338 644.527,336.505 646.5,337C 658.696,349.53 671.196,361.696 684,373.5C 684.333,361.833 684.667,350.167 685,338.5C 690.333,337.167 695.667,337.167 701,338.5C 701.822,362.239 701.656,385.906 700.5,409.5 Z"/></g>
<g><path style="opacity:0.937" fill="#0d6936" d="M 755.5,409.5 C 751.5,409.5 747.5,409.5 743.5,409.5C 719.938,402.803 710.105,387.469 714,363.5C 721.862,342.149 737.029,333.649 759.5,338C 764.694,339.847 769.528,342.347 774,345.5C 774.667,347.167 774.667,348.833 774,350.5C 771.5,353 769,355.5 766.5,358C 765.167,358.667 763.833,358.667 762.5,358C 750.585,350.413 740.752,352.58 733,364.5C 728.614,378.095 733.114,387.262 746.5,392C 750.524,392.497 754.524,392.331 758.5,391.5C 758.5,389.833 758.5,388.167 758.5,386.5C 756.08,386.708 753.747,386.374 751.5,385.5C 750.2,380.95 750.2,376.45 751.5,372C 759.167,371.333 766.833,371.333 774.5,372C 775.652,382.09 775.819,392.256 775,402.5C 768.715,405.759 762.215,408.092 755.5,409.5 Z"/></g>
<g><path style="opacity:0.934" fill="#0d6936" d="M 103.5,337.5 C 118.5,337.5 133.5,337.5 148.5,337.5C 148.805,342.762 148.471,347.928 147.5,353C 138.173,353.5 128.839,353.666 119.5,353.5C 119.5,357.833 119.5,362.167 119.5,366.5C 127.528,366.169 135.528,366.502 143.5,367.5C 144.833,372.167 144.833,376.833 143.5,381.5C 135.528,382.498 127.528,382.831 119.5,382.5C 119.666,390.84 119.5,399.173 119,407.5C 113.667,408.833 108.333,408.833 103,407.5C 102.178,384.094 102.345,360.761 103.5,337.5 Z"/></g>
<g><path style="opacity:0.951" fill="#0d6936" d="M 192.5,409.5 C 188.833,409.5 185.167,409.5 181.5,409.5C 169.515,406.347 162.015,398.681 159,386.5C 158.333,370.5 158.333,354.5 159,338.5C 164.407,337.527 169.907,337.193 175.5,337.5C 175.333,352.837 175.5,368.17 176,383.5C 179.98,392.079 186.147,394.246 194.5,390C 196.617,388.269 198.117,386.102 199,383.5C 199.5,368.17 199.667,352.837 199.5,337.5C 205.093,337.193 210.593,337.527 216,338.5C 216.667,354.5 216.667,370.5 216,386.5C 212.91,399.091 205.076,406.758 192.5,409.5 Z"/></g>
<g><path style="opacity:0.943" fill="#0d6936" d="M 310.5,337.5 C 322.895,337.082 335.228,337.582 347.5,339C 366.4,346.961 374.233,361.127 371,381.5C 366.633,395.868 357.133,404.701 342.5,408C 331.59,408.82 320.757,408.653 310,407.5C 309.178,384.094 309.345,360.761 310.5,337.5 Z M 326.5,353.5 C 342.417,350.447 351.75,356.78 354.5,372.5C 352.053,388.417 342.719,395.084 326.5,392.5C 326.5,379.5 326.5,366.5 326.5,353.5 Z"/></g>
<g><path style="opacity:0.942" fill="#0d6936" d="M 384.5,337.5 C 396.838,337.333 409.171,337.5 421.5,338C 437.467,344.444 441.967,355.611 435,371.5C 431.916,375.091 428.416,378.091 424.5,380.5C 428.868,388.376 433.035,396.376 437,404.5C 437.684,405.784 437.517,406.951 436.5,408C 431.167,408.667 425.833,408.667 420.5,408C 415.618,399.737 411.118,391.237 407,382.5C 404.959,381.577 402.792,381.244 400.5,381.5C 400.666,390.173 400.5,398.84 400,407.5C 394.667,408.833 389.333,408.833 384,407.5C 383.178,384.094 383.345,360.761 384.5,337.5 Z M 400.5,352.5 C 405.844,352.334 411.177,352.501 416.5,353C 423.09,357.532 423.09,362.199 416.5,367C 411.177,367.499 405.844,367.666 400.5,367.5C 400.5,362.5 400.5,357.5 400.5,352.5 Z"/></g>
<g><path style="opacity:0.933" fill="#0d6936" d="M 519.5,337.5 C 524.5,337.5 529.5,337.5 534.5,337.5C 534.667,360.836 534.5,384.169 534,407.5C 528.667,408.833 523.333,408.833 518,407.5C 517.333,384.833 517.333,362.167 518,339.5C 518.717,338.956 519.217,338.289 519.5,337.5 Z"/></g>
<g><path style="opacity:0.945" fill="#0d6936" d="M 607.5,337.5 C 612.762,337.195 617.928,337.529 623,338.5C 623.827,361.739 623.66,384.906 622.5,408C 617.249,408.804 612.082,408.637 607,407.5C 606.178,384.094 606.345,360.761 607.5,337.5 Z"/></g>
</svg>
