<?xml version="1.0" encoding="UTF-8"?>
<!DOCTYPE svg PUBLIC "-//W3C//DTD SVG 1.1//EN" "http://www.w3.org/Graphics/SVG/1.1/DTD/svg11.dtd">
<svg xmlns="http://www.w3.org/2000/svg" version="1.1" width="3840px" height="2160px" style="shape-rendering:geometricPrecision; text-rendering:geometricPrecision; image-rendering:optimizeQuality; fill-rule:evenodd; clip-rule:evenodd" xmlns:xlink="http://www.w3.org/1999/xlink">
<g><path style="opacity:0.998" fill="#eda52c" d="M 3808.5,378.5 C 2549.17,378.5 1289.83,378.5 30.5,378.5C 30.5229,357.125 30.5229,335.958 30.5,315C 41.2512,252.915 77.7512,217.082 140,207.5C 1326.33,207.5 2512.67,207.5 3699,207.5C 3758.07,215.905 3794.07,249.239 3807,307.5C 3808.41,331.135 3808.91,354.802 3808.5,378.5 Z"/></g>
<g><path style="opacity:1" fill="#f7c4a4" d="M 30.5,379.5 C 30.5,379.167 30.5,378.833 30.5,378.5C 1289.83,378.5 2549.17,378.5 3808.5,378.5C 3808.5,379.167 3808.5,379.833 3808.5,380.5C 2549.24,379.5 1289.9,379.167 30.5,379.5 Z"/></g>
<g><path style="opacity:1" fill="#fffefe" d="M 30.5,379.5 C 1289.9,379.167 2549.24,379.5 3808.5,380.5C 3808.5,409.167 3808.5,437.833 3808.5,466.5C 3592.79,466.502 3377.29,466.502 3162,466.5C 3058.01,472.271 2964.17,505.771 2880.5,567C 2833.05,602.763 2788.88,642.597 2748,686.5C 2731,705.167 2714,723.833 2697,742.5C 2596.87,859.628 2496.37,976.461 2395.5,1093C 2495.71,1212.87 2595.54,1333.04 2695,1453.5C 2715.96,1488.93 2716.62,1524.59 2697,1560.5C 2669.52,1600.1 2632.69,1612.6 2586.5,1598C 2571.82,1591.41 2558.98,1582.24 2548,1570.5C 2455.33,1459.83 2362.67,1349.17 2270,1238.5C 2181.76,1340.65 2093.76,1442.98 2006,1545.5C 1991.35,1563.16 1973.18,1575.66 1951.5,1583C 1907.97,1591.81 1874.14,1577.65 1850,1540.5C 1830.53,1502 1833.2,1464.33 1858,1427.5C 1954.73,1315.94 2050.89,1203.94 2146.5,1091.5C 2084.06,1015.56 2021.06,940.062 1957.5,865C 1997.63,814.374 2038.3,764.208 2079.5,714.5C 2144.2,791.037 2208.37,868.037 2272,945.5C 2330.33,877.833 2388.67,810.167 2447,742.5C 2477.33,704.833 2507.67,667.167 2538,629.5C 2564.41,596.916 2592.58,565.75 2622.5,536C 2649.25,509.567 2678.59,486.567 2710.5,467C 1817.17,466.5 923.833,466.333 30.5,466.5C 30.5,437.5 30.5,408.5 30.5,379.5 Z"/></g>
<g><path style="opacity:1" fill="#ed1c24" d="M 30.5,466.5 C 923.833,466.333 1817.17,466.5 2710.5,467C 2678.59,486.567 2649.25,509.567 2622.5,536C 2592.58,565.75 2564.41,596.916 2538,629.5C 2507.67,667.167 2477.33,704.833 2447,742.5C 2388.67,810.167 2330.33,877.833 2272,945.5C 2208.37,868.037 2144.2,791.037 2079.5,714.5C 2038.3,764.208 1997.63,814.374 1957.5,865C 2021.06,940.062 2084.06,1015.56 2146.5,1091.5C 2050.89,1203.94 1954.73,1315.94 1858,1427.5C 1833.2,1464.33 1830.53,1502 1850,1540.5C 1874.14,1577.65 1907.97,1591.81 1951.5,1583C 1973.18,1575.66 1991.35,1563.16 2006,1545.5C 2093.76,1442.98 2181.76,1340.65 2270,1238.5C 2362.67,1349.17 2455.33,1459.83 2548,1570.5C 2558.98,1582.24 2571.82,1591.41 2586.5,1598C 2632.69,1612.6 2669.52,1600.1 2697,1560.5C 2716.62,1524.59 2715.96,1488.93 2695,1453.5C 2595.54,1333.04 2495.71,1212.87 2395.5,1093C 2496.37,976.461 2596.87,859.628 2697,742.5C 2714,723.833 2731,705.167 2748,686.5C 2788.88,642.597 2833.05,602.763 2880.5,567C 2964.17,505.771 3058.01,472.271 3162,466.5C 3377.29,466.502 3592.79,466.502 3808.5,466.5C 3808.5,875.167 3808.5,1283.83 3808.5,1692.5C 2923.5,1692.67 2038.5,1692.5 1153.5,1692C 1191.52,1667.34 1226.02,1638.17 1257,1604.5C 1285.46,1573.05 1312.79,1540.71 1339,1507.5C 1364.43,1474.32 1390.09,1441.32 1416,1408.5C 1471,1341.5 1526,1274.5 1581,1207.5C 1645.3,1280.8 1709.96,1353.8 1775,1426.5C 1815.95,1378.09 1856.79,1329.59 1897.5,1281C 1832.74,1206.81 1767.74,1132.81 1702.5,1059C 1795.88,945.075 1889.38,831.241 1983,717.5C 2005.18,684.902 2009.18,650.235 1995,613.5C 1970.69,568.267 1933.53,551.767 1883.5,564C 1865.12,571.112 1849.62,582.279 1837,597.5C 1750.24,703.351 1663.24,809.017 1576,914.5C 1481.33,806.5 1386.67,698.5 1292,590.5C 1272.73,569.682 1248.9,558.349 1220.5,556.5C 1185.46,558.593 1158.96,574.593 1141,604.5C 1122.62,644.302 1126.29,681.969 1152,717.5C 1253.21,832.37 1354.04,947.537 1454.5,1063C 1361.33,1176.17 1268.17,1289.33 1175,1402.5C 1130.31,1455.86 1082.14,1506.03 1030.5,1553C 988.164,1589.96 941.497,1620.62 890.5,1645C 825.388,1673.96 757.221,1689.79 686,1692.5C 467.707,1692.5 249.207,1692.5 30.5,1692.5C 30.5,1283.83 30.5,875.167 30.5,466.5 Z"/></g>
<g><path style="opacity:1" fill="#fffefe" d="M 3808.5,1692.5 C 3808.5,1721.17 3808.5,1749.83 3808.5,1778.5C 2549.24,1779.5 1289.9,1779.83 30.5,1779.5C 30.5,1750.5 30.5,1721.5 30.5,1692.5C 249.207,1692.5 467.707,1692.5 686,1692.5C 757.221,1689.79 825.388,1673.96 890.5,1645C 941.497,1620.62 988.164,1589.96 1030.5,1553C 1082.14,1506.03 1130.31,1455.86 1175,1402.5C 1268.17,1289.33 1361.33,1176.17 1454.5,1063C 1354.04,947.537 1253.21,832.37 1152,717.5C 1126.29,681.969 1122.62,644.302 1141,604.5C 1158.96,574.593 1185.46,558.593 1220.5,556.5C 1248.9,558.349 1272.73,569.682 1292,590.5C 1386.67,698.5 1481.33,806.5 1576,914.5C 1663.24,809.017 1750.24,703.351 1837,597.5C 1849.62,582.279 1865.12,571.112 1883.5,564C 1933.53,551.767 1970.69,568.267 1995,613.5C 2009.18,650.235 2005.18,684.902 1983,717.5C 1889.38,831.241 1795.88,945.075 1702.5,1059C 1767.74,1132.81 1832.74,1206.81 1897.5,1281C 1856.79,1329.59 1815.95,1378.09 1775,1426.5C 1709.96,1353.8 1645.3,1280.8 1581,1207.5C 1526,1274.5 1471,1341.5 1416,1408.5C 1390.09,1441.32 1364.43,1474.32 1339,1507.5C 1312.79,1540.71 1285.46,1573.05 1257,1604.5C 1226.02,1638.17 1191.52,1667.34 1153.5,1692C 2038.5,1692.5 2923.5,1692.67 3808.5,1692.5 Z"/></g>
<g><path style="opacity:1" fill="#fffefe" d="M 630.5,560.5 C 782.607,558.952 910.773,613.952 1015,725.5C 1112.8,838.594 1153.8,969.927 1138,1119.5C 1114.94,1273.91 1038.44,1393.41 908.5,1478C 783.022,1553.21 650.022,1571.88 509.5,1534C 366.844,1489.67 262.678,1400.5 197,1266.5C 135,1126.83 135,987.165 197,847.5C 249.556,738.61 330.39,658.11 439.5,606C 500.586,578.307 564.253,563.141 630.5,560.5 Z"/></g>
<g><path style="opacity:1" fill="#fffefe" d="M 3215.5,560.5 C 3366.5,559.087 3494,613.087 3598,722.5C 3700.74,839.691 3742.07,976.024 3722,1131.5C 3695.74,1282.62 3618.24,1399.12 3489.5,1481C 3367.27,1552.46 3238.27,1570.8 3102.5,1536C 2971.51,1497.97 2871.34,1420.47 2802,1303.5C 2736.41,1184.78 2720.08,1060.11 2753,929.5C 2796.53,779.639 2888.7,671.139 3029.5,604C 3088.88,577.82 3150.88,563.32 3215.5,560.5 Z"/></g>
<g><path style="opacity:1" fill="#ed1c24" d="M 636.5,742.5 C 754.756,742.726 846.923,792.392 913,891.5C 964.744,980.245 973.744,1072.25 940,1167.5C 909.094,1245.74 855.928,1303.57 780.5,1341C 685.945,1383.61 591.278,1380.95 496.5,1333C 397.242,1274.96 342.576,1188.29 332.5,1073C 330.048,971.882 366.382,887.216 441.5,819C 497.797,771.618 562.797,746.118 636.5,742.5 Z"/></g>
<g><path style="opacity:1" fill="#ed1c24" d="M 3222.5,742.5 C 3331.27,742.131 3419.1,785.464 3486,872.5C 3547.28,961.767 3561.28,1058.1 3528,1161.5C 3493.75,1251.75 3431.92,1314.91 3342.5,1351C 3246.56,1385.32 3153.56,1375.65 3063.5,1322C 2963.55,1253.6 2915.38,1158.43 2919,1036.5C 2929.26,928.081 2980.09,844.914 3071.5,787C 3118.2,759.71 3168.53,744.876 3222.5,742.5 Z"/></g>
<g><path style="opacity:1" fill="#f7c4a4" d="M 3808.5,1778.5 C 3808.5,1779.17 3808.5,1779.83 3808.5,1780.5C 2549.17,1780.5 1289.83,1780.5 30.5,1780.5C 30.5,1780.17 30.5,1779.83 30.5,1779.5C 1289.9,1779.83 2549.24,1779.5 3808.5,1778.5 Z"/></g>
<g><path style="opacity:0.998" fill="#eda52c" d="M 30.5,1780.5 C 1289.83,1780.5 2549.17,1780.5 3808.5,1780.5C 3808.9,1804.2 3808.4,1827.86 3807,1851.5C 3794.07,1909.76 3758.07,1943.09 3699,1951.5C 2512.67,1951.5 1326.33,1951.5 140,1951.5C 80.9277,1943.09 44.9277,1909.76 32,1851.5C 30.5851,1827.86 30.0851,1804.2 30.5,1780.5 Z"/></g>
</svg>
